<?xml version="1.0" encoding="UTF-8" standalone="no"?>
<!-- Created with Inkscape (http://www.inkscape.org/) -->

<svg
   width="88.642647mm"
   height="64.343361mm"
   viewBox="0 0 88.642647 64.343361"
   version="1.1"
   id="svg1"
   xml:space="preserve"
   inkscape:version="1.4.2 (ebf0e940d0, 2025-05-08)"
   sodipodi:docname="ambxst.svg"
   xmlns:inkscape="http://www.inkscape.org/namespaces/inkscape"
   xmlns:sodipodi="http://sodipodi.sourceforge.net/DTD/sodipodi-0.dtd"
   xmlns="http://www.w3.org/2000/svg"
   xmlns:svg="http://www.w3.org/2000/svg"><sodipodi:namedview
     id="namedview1"
     pagecolor="#ffffff"
     bordercolor="#000000"
     borderopacity="0.25"
     inkscape:showpageshadow="2"
     inkscape:pageopacity="0.0"
     inkscape:pagecheckerboard="0"
     inkscape:deskcolor="#d1d1d1"
     inkscape:document-units="mm"
     inkscape:zoom="2.1569841"
     inkscape:cx="324.06358"
     inkscape:cy="515.99823"
     inkscape:window-width="1908"
     inkscape:window-height="1028"
     inkscape:window-x="0"
     inkscape:window-y="0"
     inkscape:window-maximized="1"
     inkscape:current-layer="layer1"><inkscape:page
       x="0"
       y="0"
       width="88.642647"
       height="64.343361"
       id="page2"
       margin="0"
       bleed="0" /></sodipodi:namedview><defs
     id="defs1" /><g
     inkscape:label="Capa 1"
     inkscape:groupmode="layer"
     id="layer1"
     transform="translate(-60.678464,-97.632802)"><g
       id="g4"
       transform="translate(5.306236)"><path
         id="path2"
         style="fill:#000000"
         d="m 66.352439,97.6328 v 3.77031 3.77032 h 3.836458 3.836459 v 6.74687 6.74688 h 3.770312 3.770313 v -6.81303 -6.81302 h -3.770313 -3.770312 v -3.70416 -3.70417 h -3.836459 z m 59.009321,0 v 3.70417 3.70416 h -3.77032 -3.77031 v 6.81302 6.81303 h 3.77031 3.77032 v -6.74688 -6.74687 h 3.83646 3.83645 v -3.77032 -3.77031 h -3.83645 z m -25.668204,15.26315 c -0.252534,0.006 -0.499107,0.0266 -0.741556,0.0568 -14.284438,0.49587 -19.077293,6.98375 -22.510771,15.34066 l -0.286287,0.6966 -3.383256,-0.0351 -3.383773,-0.0351 -0.02946,-3.175 -0.02945,-3.175 -3.307292,-0.0264 -3.307292,-0.0263 -0.03514,-3.57859 -0.03514,-3.5786 h -3.635953 -3.635954 v 3.60495 l 5.17e-4,3.60495 3.556372,-0.0253 3.556888,-0.0258 0.0646,3.5972 c 0.13375,7.47014 1.669298,9.03007 9.039758,9.18238 l 3.319178,0.0687 -0.05943,1.9358 c -0.05437,1.76023 0.190054,5.46086 0.444934,6.73137 l 0.0863,0.42995 h -6.366536 -6.366537 v -3.57187 -3.57188 h -3.63802 -3.638021 v 3.63802 3.63802 h 3.553788 3.553788 l 0.15968,0.98909 c 0.35543,2.2033 1.686611,3.80433 3.831291,4.60747 0.69189,0.25913 1.085011,0.28287 5.859591,0.35037 l 5.118034,0.0723 0.86868,1.44643 c 3.79468,6.3195 9.599317,9.91412 21.376473,9.91412 11.77715,0 17.58231,-3.59462 21.37699,-9.91412 l 0.86868,-1.44643 5.11803,-0.0723 c 4.77458,-0.0675 5.16718,-0.0912 5.85907,-0.35037 2.14469,-0.80314 3.47638,-2.40417 3.83181,-4.60747 l 0.15968,-0.98909 h 3.55327 3.55379 v -3.63802 -3.63802 h -3.63802 -3.63802 v 3.57188 3.57187 h -6.36654 -6.36653 l 0.0863,-0.42995 c 0.25488,-1.27051 0.49985,-4.97114 0.44545,-6.73137 l -0.06,-1.9358 3.3197,-0.0687 c 7.37047,-0.15231 8.90601,-1.71224 9.03976,-9.18238 l 0.0646,-3.5972 3.55637,0.0258 3.55689,0.0253 v -3.60495 -3.60495 h -3.63595 -3.63544 l -0.0357,3.5786 -0.0351,3.57859 -3.30729,0.0263 -3.30729,0.0264 -0.0294,3.175 -0.0289,3.175 -3.38378,0.0351 -3.38325,0.0351 -0.28629,-0.6966 c -3.43348,-8.35692 -8.22679,-14.84481 -22.51129,-15.34066 -0.24243,-0.0302 -0.489028,-0.051 -0.74155,-0.0568 z M 86.438035,135.8899 h 2.717147 c 1.580199,0 2.498038,1.3562 2.498038,2.50579 v 8.20725 c 0,1.14331 -0.929039,2.50786 -2.498038,2.50786 h -2.717147 c -1.580722,0 -2.495972,-1.35779 -2.495972,-2.50786 v -8.20725 c 0,-1.14067 0.932055,-2.50579 2.495972,-2.50579 z m 23.792345,0 h 2.71715 c 1.5802,0 2.49804,1.3562 2.49804,2.50579 v 8.20725 c 0,1.14331 -0.92904,2.50786 -2.49804,2.50786 h -2.71715 c -1.58072,0 -2.49597,-1.35779 -2.49597,-2.50786 v -8.20725 c 0,-1.14067 0.93206,-2.50579 2.49597,-2.50579 z" /></g></g></svg>
